<svg xmlns="http://www.w3.org/2000/svg" viewBox="0 0 512 512">
  <defs>
    <linearGradient id="flameGradient1" x1="0%" y1="0%" x2="0%" y2="100%">
      <stop offset="0%" style="stop-color:#FF6B35;stop-opacity:1" />
      <stop offset="50%" style="stop-color:#F7931E;stop-opacity:1" />
      <stop offset="100%" style="stop-color:#FDB813;stop-opacity:1" />
    </linearGradient>
    <linearGradient id="flameGradient2" x1="0%" y1="0%" x2="0%" y2="100%">
      <stop offset="0%" style="stop-color:#E84118;stop-opacity:1" />
      <stop offset="50%" style="stop-color:#FF6B35;stop-opacity:1" />
      <stop offset="100%" style="stop-color:#F7931E;stop-opacity:1" />
    </linearGradient>
    <linearGradient id="flameGradient3" x1="0%" y1="0%" x2="0%" y2="100%">
      <stop offset="0%" style="stop-color:#FDB813;stop-opacity:1" />
      <stop offset="100%" style="stop-color:#FFED4E;stop-opacity:1" />
    </linearGradient>
  </defs>
  <!-- Main flame body -->
  <path d="M256 512c-70.7 0-128-57.3-128-128 0-35.3 14.3-67.3 37.5-90.5 23.2-23.2 55.2-37.5 90.5-37.5s67.3 14.3 90.5 37.5c23.2 23.2 37.5 55.2 37.5 90.5 0 70.7-57.3 128-128 128z" fill="url(#flameGradient1)"/>
  <!-- Inner flame -->
  <path d="M256 448c-35.3 0-64-28.7-64-64 0-17.7 7.2-33.7 18.7-45.3 11.6-11.5 27.6-18.7 45.3-18.7s33.7 7.2 45.3 18.7c11.5 11.6 18.7 27.6 18.7 45.3 0 35.3-28.7 64-64 64z" fill="url(#flameGradient2)"/>
  <!-- Center white-hot core -->
  <ellipse cx="256" cy="384" rx="32" ry="48" fill="#FFFFFF" opacity="0.9"/>
  <ellipse cx="256" cy="380" rx="24" ry="36" fill="url(#flameGradient3)"/>
  <!-- Flame tips -->
  <path d="M256 64c-8.8 0-16 7.2-16 16v64c0 8.8 7.2 16 16 16s16-7.2 16-16V80c0-8.8-7.2-16-16-16z" fill="url(#flameGradient1)" opacity="0.8"/>
  <path d="M160 128c-6.2-6.2-16.4-6.2-22.6 0-6.2 6.2-6.2 16.4 0 22.6l45.3 45.3c6.2 6.2 16.4 6.2 22.6 0 6.2-6.2 6.2-16.4 0-22.6L160 128z" fill="url(#flameGradient1)" opacity="0.7"/>
  <path d="M352 128l-45.3 45.3c-6.2 6.2-6.2 16.4 0 22.6 6.2 6.2 16.4 6.2 22.6 0l45.3-45.3c6.2-6.2 6.2-16.4 0-22.6-6.2-6.2-16.4-6.2-22.6 0z" fill="url(#flameGradient1)" opacity="0.7"/>
  <path d="M192 208c-6.2-6.2-16.4-6.2-22.6 0-6.2 6.2-6.2 16.4 0 22.6l22.6 22.6c6.2 6.2 16.4 6.2 22.6 0 6.2-6.2 6.2-16.4 0-22.6L192 208z" fill="url(#flameGradient2)" opacity="0.6"/>
  <path d="M320 208l-22.6 22.6c-6.2 6.2-6.2 16.4 0 22.6 6.2 6.2 16.4 6.2 22.6 0l22.6-22.6c6.2-6.2 6.2-16.4 0-22.6-6.2-6.2-16.4-6.2-22.6 0z" fill="url(#flameGradient2)" opacity="0.6"/>
</svg>
